<mxfile host="app.diagrams.net" agent="Mozilla/5.0 (Windows NT 10.0; Win64; x64) AppleWebKit/537.36 (KHTML, like Gecko) Chrome/139.0.0.0 Safari/537.36" version="28.2.0">
  <diagram name="Page-1" id="iB7CZjOayb0uAX34vhnn">
    <mxGraphModel dx="1042" dy="527" grid="1" gridSize="10" guides="1" tooltips="1" connect="1" arrows="1" fold="1" page="1" pageScale="1" pageWidth="827" pageHeight="1169" math="0" shadow="0">
      <root>
        <mxCell id="0" />
        <mxCell id="1" parent="0" />
        <mxCell id="RnyVEv3LvNVgg6abGBlx-1" value="Roles" style="rounded=0;whiteSpace=wrap;html=1;" parent="1" vertex="1">
          <mxGeometry x="132" y="418" width="70" height="40" as="geometry" />
        </mxCell>
        <mxCell id="RnyVEv3LvNVgg6abGBlx-2" value="Users" style="rounded=0;whiteSpace=wrap;html=1;" parent="1" vertex="1">
          <mxGeometry x="385.78" y="365" width="70" height="40" as="geometry" />
        </mxCell>
        <mxCell id="RnyVEv3LvNVgg6abGBlx-3" value="Có" style="rhombus;whiteSpace=wrap;html=1;" parent="1" vertex="1">
          <mxGeometry x="252" y="418" width="80" height="40" as="geometry" />
        </mxCell>
        <mxCell id="RnyVEv3LvNVgg6abGBlx-4" value="" style="endArrow=none;html=1;rounded=0;exitX=1;exitY=0.5;exitDx=0;exitDy=0;" parent="1" source="RnyVEv3LvNVgg6abGBlx-1" edge="1">
          <mxGeometry width="50" height="50" relative="1" as="geometry">
            <mxPoint x="202" y="488" as="sourcePoint" />
            <mxPoint x="252" y="438" as="targetPoint" />
          </mxGeometry>
        </mxCell>
        <mxCell id="RnyVEv3LvNVgg6abGBlx-5" value="" style="endArrow=none;html=1;rounded=0;exitX=1;exitY=0.5;exitDx=0;exitDy=0;" parent="1" source="RnyVEv3LvNVgg6abGBlx-3" edge="1">
          <mxGeometry width="50" height="50" relative="1" as="geometry">
            <mxPoint x="335.78" y="384.5" as="sourcePoint" />
            <mxPoint x="385.78" y="384.5" as="targetPoint" />
          </mxGeometry>
        </mxCell>
        <mxCell id="RnyVEv3LvNVgg6abGBlx-6" value="n" style="edgeLabel;html=1;align=center;verticalAlign=middle;resizable=0;points=[];" parent="RnyVEv3LvNVgg6abGBlx-5" vertex="1" connectable="0">
          <mxGeometry x="0.496" y="4" relative="1" as="geometry">
            <mxPoint x="-4" y="48" as="offset" />
          </mxGeometry>
        </mxCell>
        <mxCell id="RnyVEv3LvNVgg6abGBlx-7" value="1" style="text;html=1;align=center;verticalAlign=middle;resizable=0;points=[];autosize=1;strokeColor=none;fillColor=none;" parent="1" vertex="1">
          <mxGeometry x="197" y="416" width="30" height="30" as="geometry" />
        </mxCell>
        <mxCell id="RnyVEv3LvNVgg6abGBlx-8" value="OtpCodes" style="rounded=0;whiteSpace=wrap;html=1;" parent="1" vertex="1">
          <mxGeometry x="132" y="354" width="70" height="40" as="geometry" />
        </mxCell>
        <mxCell id="RnyVEv3LvNVgg6abGBlx-9" value="Có" style="rhombus;whiteSpace=wrap;html=1;" parent="1" vertex="1">
          <mxGeometry x="248" y="354" width="80" height="40" as="geometry" />
        </mxCell>
        <mxCell id="RnyVEv3LvNVgg6abGBlx-10" value="" style="endArrow=none;html=1;rounded=0;exitX=1;exitY=0.5;exitDx=0;exitDy=0;" parent="1" edge="1">
          <mxGeometry width="50" height="50" relative="1" as="geometry">
            <mxPoint x="202" y="373.5" as="sourcePoint" />
            <mxPoint x="252" y="373.5" as="targetPoint" />
          </mxGeometry>
        </mxCell>
        <mxCell id="RnyVEv3LvNVgg6abGBlx-11" value="" style="endArrow=none;html=1;rounded=0;exitX=1;exitY=0.5;exitDx=0;exitDy=0;entryX=0;entryY=0.5;entryDx=0;entryDy=0;" parent="1" target="RnyVEv3LvNVgg6abGBlx-2" edge="1">
          <mxGeometry width="50" height="50" relative="1" as="geometry">
            <mxPoint x="328" y="373.5" as="sourcePoint" />
            <mxPoint x="382.00000000000045" y="434" as="targetPoint" />
          </mxGeometry>
        </mxCell>
        <mxCell id="RnyVEv3LvNVgg6abGBlx-12" value="1" style="text;html=1;align=center;verticalAlign=middle;resizable=0;points=[];autosize=1;strokeColor=none;fillColor=none;" parent="1" vertex="1">
          <mxGeometry x="324.78" y="386" width="25" height="26" as="geometry" />
        </mxCell>
        <mxCell id="RnyVEv3LvNVgg6abGBlx-13" value="n" style="text;html=1;align=center;verticalAlign=middle;resizable=0;points=[];autosize=1;strokeColor=none;fillColor=none;" parent="1" vertex="1">
          <mxGeometry x="208" y="353" width="25" height="26" as="geometry" />
        </mxCell>
        <mxCell id="RnyVEv3LvNVgg6abGBlx-14" value="Sở hữu" style="rhombus;whiteSpace=wrap;html=1;" parent="1" vertex="1">
          <mxGeometry x="505.78" y="365" width="80" height="40" as="geometry" />
        </mxCell>
        <mxCell id="RnyVEv3LvNVgg6abGBlx-15" value="Có" style="rhombus;whiteSpace=wrap;html=1;" parent="1" vertex="1">
          <mxGeometry x="248" y="274" width="80" height="40" as="geometry" />
        </mxCell>
        <mxCell id="RnyVEv3LvNVgg6abGBlx-16" value="Addresses" style="rounded=0;whiteSpace=wrap;html=1;" parent="1" vertex="1">
          <mxGeometry x="133.78000000000003" y="271" width="70" height="40" as="geometry" />
        </mxCell>
        <mxCell id="RnyVEv3LvNVgg6abGBlx-17" value="" style="endArrow=none;html=1;rounded=0;entryX=0;entryY=0.5;entryDx=0;entryDy=0;" parent="1" target="RnyVEv3LvNVgg6abGBlx-15" edge="1">
          <mxGeometry width="50" height="50" relative="1" as="geometry">
            <mxPoint x="203.78" y="294" as="sourcePoint" />
            <mxPoint x="421.78" y="273.5" as="targetPoint" />
          </mxGeometry>
        </mxCell>
        <mxCell id="RnyVEv3LvNVgg6abGBlx-18" value="" style="endArrow=none;html=1;rounded=0;exitX=1;exitY=0.5;exitDx=0;exitDy=0;" parent="1" source="RnyVEv3LvNVgg6abGBlx-15" edge="1">
          <mxGeometry width="50" height="50" relative="1" as="geometry">
            <mxPoint x="190.78" y="273.5" as="sourcePoint" />
            <mxPoint x="382.78" y="381" as="targetPoint" />
            <Array as="points" />
          </mxGeometry>
        </mxCell>
        <mxCell id="RnyVEv3LvNVgg6abGBlx-19" value="1" style="text;html=1;align=center;verticalAlign=middle;resizable=0;points=[];autosize=1;strokeColor=none;fillColor=none;" parent="1" vertex="1">
          <mxGeometry x="332" y="339" width="25" height="26" as="geometry" />
        </mxCell>
        <mxCell id="RnyVEv3LvNVgg6abGBlx-20" value="n" style="text;html=1;align=center;verticalAlign=middle;resizable=0;points=[];autosize=1;strokeColor=none;fillColor=none;" parent="1" vertex="1">
          <mxGeometry x="224.25" y="296" width="25" height="26" as="geometry" />
        </mxCell>
        <mxCell id="RnyVEv3LvNVgg6abGBlx-21" value="Shops" style="rounded=0;whiteSpace=wrap;html=1;" parent="1" vertex="1">
          <mxGeometry x="633.78" y="365" width="70" height="40" as="geometry" />
        </mxCell>
        <mxCell id="RnyVEv3LvNVgg6abGBlx-22" value="" style="endArrow=none;html=1;rounded=0;exitX=1;exitY=0.5;exitDx=0;exitDy=0;" parent="1" edge="1">
          <mxGeometry width="50" height="50" relative="1" as="geometry">
            <mxPoint x="583.78" y="384.5" as="sourcePoint" />
            <mxPoint x="633.78" y="384.5" as="targetPoint" />
          </mxGeometry>
        </mxCell>
        <mxCell id="RnyVEv3LvNVgg6abGBlx-23" value="n" style="edgeLabel;html=1;align=center;verticalAlign=middle;resizable=0;points=[];" parent="RnyVEv3LvNVgg6abGBlx-22" vertex="1" connectable="0">
          <mxGeometry x="0.424" y="4" relative="1" as="geometry">
            <mxPoint x="1" y="-5" as="offset" />
          </mxGeometry>
        </mxCell>
        <mxCell id="RnyVEv3LvNVgg6abGBlx-24" value="" style="endArrow=none;html=1;rounded=0;exitX=1;exitY=0.5;exitDx=0;exitDy=0;" parent="1" edge="1">
          <mxGeometry width="50" height="50" relative="1" as="geometry">
            <mxPoint x="455.78" y="384.5" as="sourcePoint" />
            <mxPoint x="505.78" y="384.5" as="targetPoint" />
          </mxGeometry>
        </mxCell>
        <mxCell id="RnyVEv3LvNVgg6abGBlx-25" value="1" style="text;html=1;align=center;verticalAlign=middle;resizable=0;points=[];autosize=1;strokeColor=none;fillColor=none;" parent="1" vertex="1">
          <mxGeometry x="452.78" y="364" width="25" height="26" as="geometry" />
        </mxCell>
        <mxCell id="RnyVEv3LvNVgg6abGBlx-26" value="Categories" style="rounded=0;whiteSpace=wrap;html=1;" parent="1" vertex="1">
          <mxGeometry x="751.78" y="365" width="70" height="40" as="geometry" />
        </mxCell>
        <mxCell id="RnyVEv3LvNVgg6abGBlx-27" value="Products" style="rounded=0;whiteSpace=wrap;html=1;" parent="1" vertex="1">
          <mxGeometry x="697.78" y="516" width="70" height="40" as="geometry" />
        </mxCell>
        <mxCell id="RnyVEv3LvNVgg6abGBlx-28" value="Có" style="rhombus;whiteSpace=wrap;html=1;" parent="1" vertex="1">
          <mxGeometry x="630.78" y="442" width="80" height="40" as="geometry" />
        </mxCell>
        <mxCell id="RnyVEv3LvNVgg6abGBlx-29" value="Thuộc" style="rhombus;whiteSpace=wrap;html=1;" parent="1" vertex="1">
          <mxGeometry x="751.78" y="442" width="80" height="40" as="geometry" />
        </mxCell>
        <mxCell id="RnyVEv3LvNVgg6abGBlx-30" value="" style="endArrow=none;html=1;rounded=0;exitX=0.5;exitY=0;exitDx=0;exitDy=0;" parent="1" source="RnyVEv3LvNVgg6abGBlx-28" edge="1">
          <mxGeometry width="50" height="50" relative="1" as="geometry">
            <mxPoint x="620.78" y="455" as="sourcePoint" />
            <mxPoint x="670.78" y="405" as="targetPoint" />
          </mxGeometry>
        </mxCell>
        <mxCell id="RnyVEv3LvNVgg6abGBlx-31" value="" style="endArrow=none;html=1;rounded=0;exitX=0.5;exitY=0;exitDx=0;exitDy=0;" parent="1" edge="1">
          <mxGeometry width="50" height="50" relative="1" as="geometry">
            <mxPoint x="791.28" y="440" as="sourcePoint" />
            <mxPoint x="791.28" y="403" as="targetPoint" />
          </mxGeometry>
        </mxCell>
        <mxCell id="RnyVEv3LvNVgg6abGBlx-32" value="" style="endArrow=none;html=1;rounded=0;exitX=0.5;exitY=0;exitDx=0;exitDy=0;entryX=0.5;entryY=1;entryDx=0;entryDy=0;" parent="1" source="RnyVEv3LvNVgg6abGBlx-27" target="RnyVEv3LvNVgg6abGBlx-28" edge="1">
          <mxGeometry width="50" height="50" relative="1" as="geometry">
            <mxPoint x="646.78" y="563" as="sourcePoint" />
            <mxPoint x="646.78" y="526" as="targetPoint" />
          </mxGeometry>
        </mxCell>
        <mxCell id="RnyVEv3LvNVgg6abGBlx-33" value="" style="endArrow=none;html=1;rounded=0;exitX=0.5;exitY=0;exitDx=0;exitDy=0;entryX=0.5;entryY=1;entryDx=0;entryDy=0;" parent="1" source="RnyVEv3LvNVgg6abGBlx-27" target="RnyVEv3LvNVgg6abGBlx-29" edge="1">
          <mxGeometry width="50" height="50" relative="1" as="geometry">
            <mxPoint x="757.78" y="526" as="sourcePoint" />
            <mxPoint x="695.78" y="492" as="targetPoint" />
          </mxGeometry>
        </mxCell>
        <mxCell id="RnyVEv3LvNVgg6abGBlx-34" value="n" style="text;html=1;align=center;verticalAlign=middle;resizable=0;points=[];autosize=1;strokeColor=none;fillColor=none;" parent="1" vertex="1">
          <mxGeometry x="649.78" y="405" width="25" height="26" as="geometry" />
        </mxCell>
        <mxCell id="RnyVEv3LvNVgg6abGBlx-35" value="n" style="text;html=1;align=center;verticalAlign=middle;resizable=0;points=[];autosize=1;strokeColor=none;fillColor=none;" parent="1" vertex="1">
          <mxGeometry x="695.78" y="478" width="25" height="26" as="geometry" />
        </mxCell>
        <mxCell id="RnyVEv3LvNVgg6abGBlx-36" value="n" style="text;html=1;align=center;verticalAlign=middle;resizable=0;points=[];autosize=1;strokeColor=none;fillColor=none;" parent="1" vertex="1">
          <mxGeometry x="742.78" y="478" width="25" height="26" as="geometry" />
        </mxCell>
        <mxCell id="RnyVEv3LvNVgg6abGBlx-37" value="1" style="text;html=1;align=center;verticalAlign=middle;resizable=0;points=[];autosize=1;strokeColor=none;fillColor=none;" parent="1" vertex="1">
          <mxGeometry x="769.78" y="408" width="25" height="26" as="geometry" />
        </mxCell>
        <mxCell id="RnyVEv3LvNVgg6abGBlx-38" value="ProductMedia" style="rounded=0;whiteSpace=wrap;html=1;" parent="1" vertex="1">
          <mxGeometry x="767.78" y="663" width="83" height="40" as="geometry" />
        </mxCell>
        <mxCell id="RnyVEv3LvNVgg6abGBlx-39" value="Có" style="rhombus;whiteSpace=wrap;html=1;" parent="1" vertex="1">
          <mxGeometry x="769.28" y="588" width="80" height="40" as="geometry" />
        </mxCell>
        <mxCell id="RnyVEv3LvNVgg6abGBlx-40" value="" style="endArrow=none;html=1;rounded=0;exitX=0.5;exitY=0;exitDx=0;exitDy=0;" parent="1" source="RnyVEv3LvNVgg6abGBlx-39" edge="1">
          <mxGeometry width="50" height="50" relative="1" as="geometry">
            <mxPoint x="736.78" y="593" as="sourcePoint" />
            <mxPoint x="736.78" y="556" as="targetPoint" />
          </mxGeometry>
        </mxCell>
        <mxCell id="RnyVEv3LvNVgg6abGBlx-41" value="" style="endArrow=none;html=1;rounded=0;entryX=0.5;entryY=1;entryDx=0;entryDy=0;" parent="1" target="RnyVEv3LvNVgg6abGBlx-39" edge="1">
          <mxGeometry width="50" height="50" relative="1" as="geometry">
            <mxPoint x="809.78" y="662" as="sourcePoint" />
            <mxPoint x="793.78" y="580" as="targetPoint" />
          </mxGeometry>
        </mxCell>
        <mxCell id="RnyVEv3LvNVgg6abGBlx-42" value="1" style="text;html=1;align=center;verticalAlign=middle;resizable=0;points=[];autosize=1;strokeColor=none;fillColor=none;" parent="1" vertex="1">
          <mxGeometry x="779.78" y="554" width="25" height="26" as="geometry" />
        </mxCell>
        <mxCell id="RnyVEv3LvNVgg6abGBlx-43" value="n" style="text;html=1;align=center;verticalAlign=middle;resizable=0;points=[];autosize=1;strokeColor=none;fillColor=none;" parent="1" vertex="1">
          <mxGeometry x="805.78" y="635" width="25" height="26" as="geometry" />
        </mxCell>
        <mxCell id="RnyVEv3LvNVgg6abGBlx-44" value="carts" style="rounded=0;whiteSpace=wrap;html=1;" parent="1" vertex="1">
          <mxGeometry x="502.78" y="246" width="70" height="40" as="geometry" />
        </mxCell>
        <mxCell id="RnyVEv3LvNVgg6abGBlx-45" value="Thuộc" style="rhombus;whiteSpace=wrap;html=1;" parent="1" vertex="1">
          <mxGeometry x="455.78" y="313" width="80" height="40" as="geometry" />
        </mxCell>
        <mxCell id="RnyVEv3LvNVgg6abGBlx-46" value="" style="endArrow=none;html=1;rounded=0;entryX=0.105;entryY=0.577;entryDx=0;entryDy=0;exitX=0.75;exitY=0;exitDx=0;exitDy=0;entryPerimeter=0;" parent="1" source="RnyVEv3LvNVgg6abGBlx-2" target="RnyVEv3LvNVgg6abGBlx-45" edge="1">
          <mxGeometry width="50" height="50" relative="1" as="geometry">
            <mxPoint x="425.78" y="369" as="sourcePoint" />
            <mxPoint x="445.78" y="491" as="targetPoint" />
          </mxGeometry>
        </mxCell>
        <mxCell id="RnyVEv3LvNVgg6abGBlx-47" value="1" style="text;html=1;align=center;verticalAlign=middle;resizable=0;points=[];autosize=1;strokeColor=none;fillColor=none;" parent="1" vertex="1">
          <mxGeometry x="455.78" y="338" width="25" height="26" as="geometry" />
        </mxCell>
        <mxCell id="RnyVEv3LvNVgg6abGBlx-48" value="Thuộc" style="rhombus;whiteSpace=wrap;html=1;" parent="1" vertex="1">
          <mxGeometry x="544.78" y="313" width="80" height="40" as="geometry" />
        </mxCell>
        <mxCell id="RnyVEv3LvNVgg6abGBlx-49" value="" style="endArrow=none;html=1;rounded=0;exitX=1;exitY=0.5;exitDx=0;exitDy=0;entryX=0.5;entryY=0;entryDx=0;entryDy=0;" parent="1" source="RnyVEv3LvNVgg6abGBlx-48" target="RnyVEv3LvNVgg6abGBlx-21" edge="1">
          <mxGeometry width="50" height="50" relative="1" as="geometry">
            <mxPoint x="611.78" y="455" as="sourcePoint" />
            <mxPoint x="661.78" y="405" as="targetPoint" />
          </mxGeometry>
        </mxCell>
        <mxCell id="RnyVEv3LvNVgg6abGBlx-50" value="1" style="text;html=1;align=center;verticalAlign=middle;resizable=0;points=[];autosize=1;strokeColor=none;fillColor=none;" parent="1" vertex="1">
          <mxGeometry x="621.78" y="339" width="25" height="26" as="geometry" />
        </mxCell>
        <mxCell id="RnyVEv3LvNVgg6abGBlx-51" value="cart_items" style="rhombus;whiteSpace=wrap;html=1;" parent="1" vertex="1">
          <mxGeometry x="640.78" y="289" width="80" height="40" as="geometry" />
        </mxCell>
        <mxCell id="RnyVEv3LvNVgg6abGBlx-52" value="" style="endArrow=none;html=1;rounded=0;exitX=1;exitY=0.5;exitDx=0;exitDy=0;" parent="1" source="RnyVEv3LvNVgg6abGBlx-51" edge="1">
          <mxGeometry width="50" height="50" relative="1" as="geometry">
            <mxPoint x="688.78" y="606" as="sourcePoint" />
            <mxPoint x="722" y="515" as="targetPoint" />
          </mxGeometry>
        </mxCell>
        <mxCell id="RnyVEv3LvNVgg6abGBlx-53" value="n" style="text;html=1;align=center;verticalAlign=middle;resizable=0;points=[];autosize=1;strokeColor=none;fillColor=none;" parent="1" vertex="1">
          <mxGeometry x="633.78" y="274" width="25" height="26" as="geometry" />
        </mxCell>
        <mxCell id="RnyVEv3LvNVgg6abGBlx-54" value="n" style="text;html=1;align=center;verticalAlign=middle;resizable=0;points=[];autosize=1;strokeColor=none;fillColor=none;" parent="1" vertex="1">
          <mxGeometry x="713.78" y="461" width="25" height="26" as="geometry" />
        </mxCell>
        <mxCell id="RnyVEv3LvNVgg6abGBlx-55" value="" style="endArrow=none;html=1;rounded=0;entryX=1;entryY=0.5;entryDx=0;entryDy=0;exitX=0.458;exitY=1.001;exitDx=0;exitDy=0;exitPerimeter=0;" parent="1" source="RnyVEv3LvNVgg6abGBlx-44" target="RnyVEv3LvNVgg6abGBlx-45" edge="1">
          <mxGeometry width="50" height="50" relative="1" as="geometry">
            <mxPoint x="406.78" y="483" as="sourcePoint" />
            <mxPoint x="456.78" y="433" as="targetPoint" />
          </mxGeometry>
        </mxCell>
        <mxCell id="RnyVEv3LvNVgg6abGBlx-56" value="" style="endArrow=none;html=1;rounded=0;entryX=1;entryY=0.5;entryDx=0;entryDy=0;exitX=0.458;exitY=1.001;exitDx=0;exitDy=0;exitPerimeter=0;" parent="1" edge="1">
          <mxGeometry width="50" height="50" relative="1" as="geometry">
            <mxPoint x="543.78" y="286" as="sourcePoint" />
            <mxPoint x="544.78" y="333" as="targetPoint" />
          </mxGeometry>
        </mxCell>
        <mxCell id="RnyVEv3LvNVgg6abGBlx-57" value="" style="endArrow=none;html=1;rounded=0;entryX=0;entryY=0.5;entryDx=0;entryDy=0;exitX=1;exitY=0.5;exitDx=0;exitDy=0;" parent="1" source="RnyVEv3LvNVgg6abGBlx-44" target="RnyVEv3LvNVgg6abGBlx-51" edge="1">
          <mxGeometry width="50" height="50" relative="1" as="geometry">
            <mxPoint x="563.78" y="318" as="sourcePoint" />
            <mxPoint x="613.78" y="268" as="targetPoint" />
          </mxGeometry>
        </mxCell>
        <mxCell id="RnyVEv3LvNVgg6abGBlx-58" value="wishlists" style="rhombus;whiteSpace=wrap;html=1;" parent="1" vertex="1">
          <mxGeometry x="497.78" y="418" width="80" height="40" as="geometry" />
        </mxCell>
        <mxCell id="RnyVEv3LvNVgg6abGBlx-59" value="recently_viewed" style="rhombus;whiteSpace=wrap;html=1;" parent="1" vertex="1">
          <mxGeometry x="518.78" y="480" width="106" height="42" as="geometry" />
        </mxCell>
        <mxCell id="RnyVEv3LvNVgg6abGBlx-60" value="" style="endArrow=none;html=1;rounded=0;entryX=0;entryY=0.5;entryDx=0;entryDy=0;" parent="1" target="RnyVEv3LvNVgg6abGBlx-58" edge="1">
          <mxGeometry width="50" height="50" relative="1" as="geometry">
            <mxPoint x="456.78" y="387" as="sourcePoint" />
            <mxPoint x="468.78" y="408" as="targetPoint" />
          </mxGeometry>
        </mxCell>
        <mxCell id="RnyVEv3LvNVgg6abGBlx-61" value="" style="endArrow=none;html=1;rounded=0;entryX=0.857;entryY=1.036;entryDx=0;entryDy=0;entryPerimeter=0;" parent="1" target="RnyVEv3LvNVgg6abGBlx-2" edge="1">
          <mxGeometry width="50" height="50" relative="1" as="geometry">
            <mxPoint x="520.78" y="501" as="sourcePoint" />
            <mxPoint x="467.78" y="442" as="targetPoint" />
          </mxGeometry>
        </mxCell>
        <mxCell id="RnyVEv3LvNVgg6abGBlx-62" value="n" style="text;html=1;align=center;verticalAlign=middle;resizable=0;points=[];autosize=1;strokeColor=none;fillColor=none;" parent="1" vertex="1">
          <mxGeometry x="448.78" y="425" width="25" height="26" as="geometry" />
        </mxCell>
        <mxCell id="RnyVEv3LvNVgg6abGBlx-63" value="n" style="text;html=1;align=center;verticalAlign=middle;resizable=0;points=[];autosize=1;strokeColor=none;fillColor=none;" parent="1" vertex="1">
          <mxGeometry x="473.78" y="397" width="25" height="26" as="geometry" />
        </mxCell>
        <mxCell id="RnyVEv3LvNVgg6abGBlx-64" value="" style="endArrow=none;html=1;rounded=0;entryX=0;entryY=0.25;entryDx=0;entryDy=0;exitX=1;exitY=0.5;exitDx=0;exitDy=0;" parent="1" source="RnyVEv3LvNVgg6abGBlx-58" target="RnyVEv3LvNVgg6abGBlx-27" edge="1">
          <mxGeometry width="50" height="50" relative="1" as="geometry">
            <mxPoint x="573.78" y="454" as="sourcePoint" />
            <mxPoint x="623.78" y="404" as="targetPoint" />
          </mxGeometry>
        </mxCell>
        <mxCell id="RnyVEv3LvNVgg6abGBlx-65" value="" style="endArrow=none;html=1;rounded=0;entryX=1;entryY=0.5;entryDx=0;entryDy=0;" parent="1" target="RnyVEv3LvNVgg6abGBlx-59" edge="1">
          <mxGeometry width="50" height="50" relative="1" as="geometry">
            <mxPoint x="696.78" y="551" as="sourcePoint" />
            <mxPoint x="610.78" y="521" as="targetPoint" />
          </mxGeometry>
        </mxCell>
        <mxCell id="RnyVEv3LvNVgg6abGBlx-66" value="n" style="text;html=1;align=center;verticalAlign=middle;resizable=0;points=[];autosize=1;strokeColor=none;fillColor=none;" parent="1" vertex="1">
          <mxGeometry x="624.78" y="507" width="25" height="26" as="geometry" />
        </mxCell>
        <mxCell id="RnyVEv3LvNVgg6abGBlx-67" value="n" style="text;html=1;align=center;verticalAlign=middle;resizable=0;points=[];autosize=1;strokeColor=none;fillColor=none;" parent="1" vertex="1">
          <mxGeometry x="582.78" y="424" width="25" height="26" as="geometry" />
        </mxCell>
        <mxCell id="RnyVEv3LvNVgg6abGBlx-68" value="promotions" style="rounded=0;whiteSpace=wrap;html=1;" parent="1" vertex="1">
          <mxGeometry x="879.78" y="476" width="70" height="40" as="geometry" />
        </mxCell>
        <mxCell id="RnyVEv3LvNVgg6abGBlx-69" value="Có" style="rhombus;whiteSpace=wrap;html=1;" parent="1" vertex="1">
          <mxGeometry x="750.78" y="319" width="80" height="40" as="geometry" />
        </mxCell>
        <mxCell id="RnyVEv3LvNVgg6abGBlx-70" value="" style="endArrow=none;html=1;rounded=0;entryX=1;entryY=0.5;entryDx=0;entryDy=0;" parent="1" target="RnyVEv3LvNVgg6abGBlx-69" edge="1">
          <mxGeometry width="50" height="50" relative="1" as="geometry">
            <mxPoint x="915.78" y="478" as="sourcePoint" />
            <mxPoint x="965.78" y="428" as="targetPoint" />
            <Array as="points">
              <mxPoint x="915.78" y="342" />
            </Array>
          </mxGeometry>
        </mxCell>
        <mxCell id="RnyVEv3LvNVgg6abGBlx-71" value="" style="endArrow=none;html=1;rounded=0;exitX=0.5;exitY=0;exitDx=0;exitDy=0;" parent="1" source="RnyVEv3LvNVgg6abGBlx-21" edge="1">
          <mxGeometry width="50" height="50" relative="1" as="geometry">
            <mxPoint x="701.78" y="390" as="sourcePoint" />
            <mxPoint x="751.78" y="340" as="targetPoint" />
            <Array as="points">
              <mxPoint x="668.78" y="340" />
            </Array>
          </mxGeometry>
        </mxCell>
        <mxCell id="RnyVEv3LvNVgg6abGBlx-72" value="1" style="text;html=1;align=center;verticalAlign=middle;resizable=0;points=[];autosize=1;strokeColor=none;fillColor=none;" parent="1" vertex="1">
          <mxGeometry x="665.78" y="338" width="25" height="26" as="geometry" />
        </mxCell>
        <mxCell id="RnyVEv3LvNVgg6abGBlx-73" value="n" style="text;html=1;align=center;verticalAlign=middle;resizable=0;points=[];autosize=1;strokeColor=none;fillColor=none;" parent="1" vertex="1">
          <mxGeometry x="921.78" y="434" width="25" height="26" as="geometry" />
        </mxCell>
        <mxCell id="RnyVEv3LvNVgg6abGBlx-74" value="Có" style="rhombus;whiteSpace=wrap;html=1;" parent="1" vertex="1">
          <mxGeometry x="799.78" y="516" width="80" height="40" as="geometry" />
        </mxCell>
        <mxCell id="RnyVEv3LvNVgg6abGBlx-75" value="" style="endArrow=none;html=1;rounded=0;entryX=0;entryY=0.5;entryDx=0;entryDy=0;exitX=1;exitY=0.5;exitDx=0;exitDy=0;" parent="1" source="RnyVEv3LvNVgg6abGBlx-27" target="RnyVEv3LvNVgg6abGBlx-74" edge="1">
          <mxGeometry width="50" height="50" relative="1" as="geometry">
            <mxPoint x="776.78" y="550" as="sourcePoint" />
            <mxPoint x="826.78" y="500" as="targetPoint" />
          </mxGeometry>
        </mxCell>
        <mxCell id="RnyVEv3LvNVgg6abGBlx-76" value="" style="endArrow=none;html=1;rounded=0;entryX=0.5;entryY=1;entryDx=0;entryDy=0;exitX=1;exitY=0.5;exitDx=0;exitDy=0;" parent="1" source="RnyVEv3LvNVgg6abGBlx-74" target="RnyVEv3LvNVgg6abGBlx-68" edge="1">
          <mxGeometry width="50" height="50" relative="1" as="geometry">
            <mxPoint x="878.78" y="539" as="sourcePoint" />
            <mxPoint x="928.78" y="489" as="targetPoint" />
            <Array as="points">
              <mxPoint x="914.78" y="536" />
            </Array>
          </mxGeometry>
        </mxCell>
        <mxCell id="RnyVEv3LvNVgg6abGBlx-77" value="n" style="text;html=1;align=center;verticalAlign=middle;resizable=0;points=[];autosize=1;strokeColor=none;fillColor=none;" parent="1" vertex="1">
          <mxGeometry x="771.78" y="509" width="25" height="26" as="geometry" />
        </mxCell>
        <mxCell id="RnyVEv3LvNVgg6abGBlx-78" value="n" style="text;html=1;align=center;verticalAlign=middle;resizable=0;points=[];autosize=1;strokeColor=none;fillColor=none;" parent="1" vertex="1">
          <mxGeometry x="882.78" y="529" width="25" height="26" as="geometry" />
        </mxCell>
        <mxCell id="RnyVEv3LvNVgg6abGBlx-79" value="coupons" style="rounded=0;whiteSpace=wrap;html=1;" parent="1" vertex="1">
          <mxGeometry x="876.78" y="260" width="70" height="40" as="geometry" />
        </mxCell>
        <mxCell id="RnyVEv3LvNVgg6abGBlx-80" value="Có" style="rhombus;whiteSpace=wrap;html=1;" parent="1" vertex="1">
          <mxGeometry x="746.78" y="260" width="80" height="40" as="geometry" />
        </mxCell>
        <mxCell id="RnyVEv3LvNVgg6abGBlx-81" value="" style="endArrow=none;html=1;rounded=0;entryX=0;entryY=1;entryDx=0;entryDy=0;" parent="1" target="RnyVEv3LvNVgg6abGBlx-80" edge="1">
          <mxGeometry width="50" height="50" relative="1" as="geometry">
            <mxPoint x="687.78" y="366" as="sourcePoint" />
            <mxPoint x="737.78" y="316" as="targetPoint" />
          </mxGeometry>
        </mxCell>
        <mxCell id="RnyVEv3LvNVgg6abGBlx-82" value="1" style="text;html=1;align=center;verticalAlign=middle;resizable=0;points=[];autosize=1;strokeColor=none;fillColor=none;" parent="1" vertex="1">
          <mxGeometry x="700.78" y="343" width="25" height="26" as="geometry" />
        </mxCell>
        <mxCell id="RnyVEv3LvNVgg6abGBlx-83" value="" style="endArrow=none;html=1;rounded=0;entryX=0;entryY=0.5;entryDx=0;entryDy=0;" parent="1" target="RnyVEv3LvNVgg6abGBlx-79" edge="1">
          <mxGeometry width="50" height="50" relative="1" as="geometry">
            <mxPoint x="827.78" y="281" as="sourcePoint" />
            <mxPoint x="877.78" y="231" as="targetPoint" />
          </mxGeometry>
        </mxCell>
        <mxCell id="RnyVEv3LvNVgg6abGBlx-84" value="n" style="text;html=1;align=center;verticalAlign=middle;resizable=0;points=[];autosize=1;strokeColor=none;fillColor=none;" parent="1" vertex="1">
          <mxGeometry x="837.78" y="250" width="25" height="26" as="geometry" />
        </mxCell>
        <mxCell id="RnyVEv3LvNVgg6abGBlx-85" value="shipping_carriers" style="rounded=0;whiteSpace=wrap;html=1;" parent="1" vertex="1">
          <mxGeometry x="119.75" y="123" width="104.5" height="40" as="geometry" />
        </mxCell>
        <mxCell id="RnyVEv3LvNVgg6abGBlx-86" value="orders" style="rounded=0;whiteSpace=wrap;html=1;" parent="1" vertex="1">
          <mxGeometry x="382.78" y="175" width="70" height="40" as="geometry" />
        </mxCell>
        <mxCell id="RnyVEv3LvNVgg6abGBlx-87" value="Có" style="rhombus;whiteSpace=wrap;html=1;" parent="1" vertex="1">
          <mxGeometry x="422.78" y="279" width="80" height="40" as="geometry" />
        </mxCell>
        <mxCell id="RnyVEv3LvNVgg6abGBlx-88" value="" style="endArrow=none;html=1;rounded=0;exitX=0.5;exitY=0;exitDx=0;exitDy=0;entryX=0.5;entryY=1;entryDx=0;entryDy=0;" parent="1" source="RnyVEv3LvNVgg6abGBlx-2" target="RnyVEv3LvNVgg6abGBlx-87" edge="1">
          <mxGeometry width="50" height="50" relative="1" as="geometry">
            <mxPoint x="367" y="368" as="sourcePoint" />
            <mxPoint x="417" y="318" as="targetPoint" />
          </mxGeometry>
        </mxCell>
        <mxCell id="RnyVEv3LvNVgg6abGBlx-89" value="" style="endArrow=none;html=1;rounded=0;entryX=0.5;entryY=1;entryDx=0;entryDy=0;exitX=0.5;exitY=0;exitDx=0;exitDy=0;" parent="1" source="RnyVEv3LvNVgg6abGBlx-87" target="RnyVEv3LvNVgg6abGBlx-86" edge="1">
          <mxGeometry width="50" height="50" relative="1" as="geometry">
            <mxPoint x="418" y="275" as="sourcePoint" />
            <mxPoint x="422" y="215" as="targetPoint" />
            <Array as="points" />
          </mxGeometry>
        </mxCell>
        <mxCell id="RnyVEv3LvNVgg6abGBlx-90" value="1" style="text;html=1;align=center;verticalAlign=middle;resizable=0;points=[];autosize=1;strokeColor=none;fillColor=none;" parent="1" vertex="1">
          <mxGeometry x="430.78" y="314" width="25" height="26" as="geometry" />
        </mxCell>
        <mxCell id="RnyVEv3LvNVgg6abGBlx-91" value="n" style="text;html=1;align=center;verticalAlign=middle;resizable=0;points=[];autosize=1;strokeColor=none;fillColor=none;" parent="1" vertex="1">
          <mxGeometry x="418" y="210" width="25" height="26" as="geometry" />
        </mxCell>
        <mxCell id="RnyVEv3LvNVgg6abGBlx-92" value="" style="endArrow=none;html=1;rounded=0;entryX=0;entryY=0.5;entryDx=0;entryDy=0;exitX=1;exitY=0.5;exitDx=0;exitDy=0;" parent="1" source="RnyVEv3LvNVgg6abGBlx-86" target="RnyVEv3LvNVgg6abGBlx-93" edge="1">
          <mxGeometry width="50" height="50" relative="1" as="geometry">
            <mxPoint x="451" y="194" as="sourcePoint" />
            <mxPoint x="619" y="199" as="targetPoint" />
          </mxGeometry>
        </mxCell>
        <mxCell id="RnyVEv3LvNVgg6abGBlx-93" value="Có" style="rhombus;whiteSpace=wrap;html=1;" parent="1" vertex="1">
          <mxGeometry x="597.28" y="182" width="80" height="40" as="geometry" />
        </mxCell>
        <mxCell id="RnyVEv3LvNVgg6abGBlx-94" value="" style="endArrow=none;html=1;rounded=0;exitX=0.752;exitY=1.025;exitDx=0;exitDy=0;entryX=0.5;entryY=1;entryDx=0;entryDy=0;exitPerimeter=0;" parent="1" source="RnyVEv3LvNVgg6abGBlx-50" target="RnyVEv3LvNVgg6abGBlx-93" edge="1">
          <mxGeometry width="50" height="50" relative="1" as="geometry">
            <mxPoint x="657" y="360" as="sourcePoint" />
            <mxPoint x="660" y="219" as="targetPoint" />
          </mxGeometry>
        </mxCell>
        <mxCell id="RnyVEv3LvNVgg6abGBlx-95" value="1" style="text;html=1;align=center;verticalAlign=middle;resizable=0;points=[];autosize=1;strokeColor=none;fillColor=none;" parent="1" vertex="1">
          <mxGeometry x="637" y="218" width="25" height="26" as="geometry" />
        </mxCell>
        <mxCell id="RnyVEv3LvNVgg6abGBlx-96" value="n" style="text;html=1;align=center;verticalAlign=middle;resizable=0;points=[];autosize=1;strokeColor=none;fillColor=none;" parent="1" vertex="1">
          <mxGeometry x="553" y="175" width="25" height="26" as="geometry" />
        </mxCell>
        <mxCell id="RnyVEv3LvNVgg6abGBlx-97" value="Có" style="rhombus;whiteSpace=wrap;html=1;" parent="1" vertex="1">
          <mxGeometry x="247.99999999999997" y="218" width="80" height="40" as="geometry" />
        </mxCell>
        <mxCell id="RnyVEv3LvNVgg6abGBlx-98" value="" style="endArrow=none;html=1;rounded=0;exitX=1;exitY=0.5;exitDx=0;exitDy=0;" parent="1" source="RnyVEv3LvNVgg6abGBlx-97" edge="1">
          <mxGeometry width="50" height="50" relative="1" as="geometry">
            <mxPoint x="333" y="246" as="sourcePoint" />
            <mxPoint x="383" y="196" as="targetPoint" />
          </mxGeometry>
        </mxCell>
        <mxCell id="RnyVEv3LvNVgg6abGBlx-99" value="" style="endArrow=none;html=1;rounded=0;" parent="1" edge="1">
          <mxGeometry width="50" height="50" relative="1" as="geometry">
            <mxPoint x="171.41" y="270" as="sourcePoint" />
            <mxPoint x="247" y="237" as="targetPoint" />
          </mxGeometry>
        </mxCell>
        <mxCell id="RnyVEv3LvNVgg6abGBlx-100" value="n" style="text;html=1;align=center;verticalAlign=middle;resizable=0;points=[];autosize=1;strokeColor=none;fillColor=none;" parent="1" vertex="1">
          <mxGeometry x="316" y="206" width="25" height="26" as="geometry" />
        </mxCell>
        <mxCell id="RnyVEv3LvNVgg6abGBlx-101" value="1" style="text;html=1;align=center;verticalAlign=middle;resizable=0;points=[];autosize=1;strokeColor=none;fillColor=none;" parent="1" vertex="1">
          <mxGeometry x="203.78" y="258" width="25" height="26" as="geometry" />
        </mxCell>
        <mxCell id="RnyVEv3LvNVgg6abGBlx-102" value="Có" style="rhombus;whiteSpace=wrap;html=1;" parent="1" vertex="1">
          <mxGeometry x="594.28" y="119" width="80" height="40" as="geometry" />
        </mxCell>
        <mxCell id="RnyVEv3LvNVgg6abGBlx-103" value="" style="endArrow=none;html=1;rounded=0;" parent="1" edge="1">
          <mxGeometry width="50" height="50" relative="1" as="geometry">
            <mxPoint x="439" y="172" as="sourcePoint" />
            <mxPoint x="594" y="141" as="targetPoint" />
            <Array as="points">
              <mxPoint x="439" y="138" />
            </Array>
          </mxGeometry>
        </mxCell>
        <mxCell id="RnyVEv3LvNVgg6abGBlx-104" value="" style="endArrow=none;html=1;rounded=0;" parent="1" edge="1">
          <mxGeometry width="50" height="50" relative="1" as="geometry">
            <mxPoint x="673" y="140" as="sourcePoint" />
            <mxPoint x="912" y="257" as="targetPoint" />
            <Array as="points">
              <mxPoint x="912" y="144" />
            </Array>
          </mxGeometry>
        </mxCell>
        <mxCell id="RnyVEv3LvNVgg6abGBlx-105" value="n" style="text;html=1;align=center;verticalAlign=middle;resizable=0;points=[];autosize=1;strokeColor=none;fillColor=none;" parent="1" vertex="1">
          <mxGeometry x="538" y="117" width="25" height="26" as="geometry" />
        </mxCell>
        <mxCell id="RnyVEv3LvNVgg6abGBlx-106" value="1" style="text;html=1;align=center;verticalAlign=middle;resizable=0;points=[];autosize=1;strokeColor=none;fillColor=none;" parent="1" vertex="1">
          <mxGeometry x="678.78" y="115" width="25" height="26" as="geometry" />
        </mxCell>
        <mxCell id="RnyVEv3LvNVgg6abGBlx-107" value="Có" style="rhombus;whiteSpace=wrap;html=1;" parent="1" vertex="1">
          <mxGeometry x="298.5" y="123" width="80" height="40" as="geometry" />
        </mxCell>
        <mxCell id="RnyVEv3LvNVgg6abGBlx-108" value="" style="endArrow=none;html=1;rounded=0;exitX=0;exitY=0;exitDx=0;exitDy=0;" parent="1" source="RnyVEv3LvNVgg6abGBlx-86" edge="1">
          <mxGeometry width="50" height="50" relative="1" as="geometry">
            <mxPoint x="313" y="204" as="sourcePoint" />
            <mxPoint x="363" y="154" as="targetPoint" />
          </mxGeometry>
        </mxCell>
        <mxCell id="RnyVEv3LvNVgg6abGBlx-109" value="" style="endArrow=none;html=1;rounded=0;" parent="1" edge="1">
          <mxGeometry width="50" height="50" relative="1" as="geometry">
            <mxPoint x="226" y="142" as="sourcePoint" />
            <mxPoint x="299" y="142" as="targetPoint" />
          </mxGeometry>
        </mxCell>
        <mxCell id="RnyVEv3LvNVgg6abGBlx-110" value="n" style="text;html=1;align=center;verticalAlign=middle;resizable=0;points=[];autosize=1;strokeColor=none;fillColor=none;" parent="1" vertex="1">
          <mxGeometry x="346" y="159" width="25" height="26" as="geometry" />
        </mxCell>
        <mxCell id="RnyVEv3LvNVgg6abGBlx-111" value="1" style="text;html=1;align=center;verticalAlign=middle;resizable=0;points=[];autosize=1;strokeColor=none;fillColor=none;" parent="1" vertex="1">
          <mxGeometry x="222" y="137" width="25" height="26" as="geometry" />
        </mxCell>
        <mxCell id="RnyVEv3LvNVgg6abGBlx-112" value="order_items" style="rhombus;whiteSpace=wrap;html=1;" parent="1" vertex="1">
          <mxGeometry x="590" y="56" width="80" height="40" as="geometry" />
        </mxCell>
        <mxCell id="RnyVEv3LvNVgg6abGBlx-113" value="" style="endArrow=none;html=1;rounded=0;exitX=0.5;exitY=0;exitDx=0;exitDy=0;" parent="1" source="RnyVEv3LvNVgg6abGBlx-86" edge="1">
          <mxGeometry width="50" height="50" relative="1" as="geometry">
            <mxPoint x="541" y="125" as="sourcePoint" />
            <mxPoint x="591" y="75" as="targetPoint" />
            <Array as="points">
              <mxPoint x="418" y="75" />
            </Array>
          </mxGeometry>
        </mxCell>
        <mxCell id="RnyVEv3LvNVgg6abGBlx-114" value="" style="endArrow=none;html=1;rounded=0;exitX=0.5;exitY=0;exitDx=0;exitDy=0;" parent="1" source="RnyVEv3LvNVgg6abGBlx-27" edge="1">
          <mxGeometry width="50" height="50" relative="1" as="geometry">
            <mxPoint x="619" y="126" as="sourcePoint" />
            <mxPoint x="669" y="76" as="targetPoint" />
            <Array as="points">
              <mxPoint x="739" y="76" />
            </Array>
          </mxGeometry>
        </mxCell>
        <mxCell id="RnyVEv3LvNVgg6abGBlx-115" value="n" style="text;html=1;align=center;verticalAlign=middle;resizable=0;points=[];autosize=1;strokeColor=none;fillColor=none;" parent="1" vertex="1">
          <mxGeometry x="538" y="42" width="25" height="26" as="geometry" />
        </mxCell>
        <mxCell id="RnyVEv3LvNVgg6abGBlx-116" value="n" style="text;html=1;align=center;verticalAlign=middle;resizable=0;points=[];autosize=1;strokeColor=none;fillColor=none;" parent="1" vertex="1">
          <mxGeometry x="679" y="47" width="25" height="26" as="geometry" />
        </mxCell>
        <mxCell id="RnyVEv3LvNVgg6abGBlx-117" value="history" style="rhombus;whiteSpace=wrap;html=1;" parent="1" vertex="1">
          <mxGeometry x="338" y="279" width="80" height="40" as="geometry" />
        </mxCell>
        <mxCell id="RnyVEv3LvNVgg6abGBlx-118" value="" style="endArrow=none;html=1;rounded=0;exitX=0.25;exitY=0;exitDx=0;exitDy=0;" parent="1" source="RnyVEv3LvNVgg6abGBlx-2" edge="1">
          <mxGeometry width="50" height="50" relative="1" as="geometry">
            <mxPoint x="329" y="369" as="sourcePoint" />
            <mxPoint x="379" y="319" as="targetPoint" />
          </mxGeometry>
        </mxCell>
        <mxCell id="RnyVEv3LvNVgg6abGBlx-119" value="" style="endArrow=none;html=1;rounded=0;" parent="1" edge="1">
          <mxGeometry width="50" height="50" relative="1" as="geometry">
            <mxPoint x="377" y="278" as="sourcePoint" />
            <mxPoint x="416" y="217" as="targetPoint" />
          </mxGeometry>
        </mxCell>
        <mxCell id="RnyVEv3LvNVgg6abGBlx-120" value="n" style="text;html=1;align=center;verticalAlign=middle;resizable=0;points=[];autosize=1;strokeColor=none;fillColor=none;" parent="1" vertex="1">
          <mxGeometry x="361" y="246" width="25" height="26" as="geometry" />
        </mxCell>
        <mxCell id="RnyVEv3LvNVgg6abGBlx-121" value="n" style="text;html=1;align=center;verticalAlign=middle;resizable=0;points=[];autosize=1;strokeColor=none;fillColor=none;" parent="1" vertex="1">
          <mxGeometry x="377" y="312" width="25" height="26" as="geometry" />
        </mxCell>
        <mxCell id="RnyVEv3LvNVgg6abGBlx-122" value="payments" style="rounded=0;whiteSpace=wrap;html=1;" parent="1" vertex="1">
          <mxGeometry x="119.75" y="54" width="104.5" height="40" as="geometry" />
        </mxCell>
        <mxCell id="RnyVEv3LvNVgg6abGBlx-123" value="Có" style="rhombus;whiteSpace=wrap;html=1;" parent="1" vertex="1">
          <mxGeometry x="291" y="56" width="80" height="40" as="geometry" />
        </mxCell>
        <mxCell id="RnyVEv3LvNVgg6abGBlx-124" value="" style="endArrow=none;html=1;rounded=0;exitX=1;exitY=0.5;exitDx=0;exitDy=0;" parent="1" source="RnyVEv3LvNVgg6abGBlx-122" edge="1">
          <mxGeometry width="50" height="50" relative="1" as="geometry">
            <mxPoint x="242" y="125" as="sourcePoint" />
            <mxPoint x="292" y="75" as="targetPoint" />
          </mxGeometry>
        </mxCell>
        <mxCell id="RnyVEv3LvNVgg6abGBlx-125" value="" style="endArrow=none;html=1;rounded=0;exitX=0.25;exitY=0;exitDx=0;exitDy=0;" parent="1" source="RnyVEv3LvNVgg6abGBlx-86" edge="1">
          <mxGeometry width="50" height="50" relative="1" as="geometry">
            <mxPoint x="323" y="125" as="sourcePoint" />
            <mxPoint x="373" y="75" as="targetPoint" />
          </mxGeometry>
        </mxCell>
        <mxCell id="RnyVEv3LvNVgg6abGBlx-126" value="n" style="text;html=1;align=center;verticalAlign=middle;resizable=0;points=[];autosize=1;strokeColor=none;fillColor=none;" parent="1" vertex="1">
          <mxGeometry x="239" y="48" width="25" height="26" as="geometry" />
        </mxCell>
        <mxCell id="RnyVEv3LvNVgg6abGBlx-127" value="1" style="text;html=1;align=center;verticalAlign=middle;resizable=0;points=[];autosize=1;strokeColor=none;fillColor=none;" parent="1" vertex="1">
          <mxGeometry x="351" y="92" width="25" height="26" as="geometry" />
        </mxCell>
        <mxCell id="RnyVEv3LvNVgg6abGBlx-128" value="shippers" style="rounded=0;whiteSpace=wrap;html=1;" parent="1" vertex="1">
          <mxGeometry x="378.78" y="522" width="70" height="40" as="geometry" />
        </mxCell>
        <mxCell id="RnyVEv3LvNVgg6abGBlx-129" value="Là" style="rhombus;whiteSpace=wrap;html=1;" parent="1" vertex="1">
          <mxGeometry x="375.78" y="442" width="80" height="40" as="geometry" />
        </mxCell>
        <mxCell id="RnyVEv3LvNVgg6abGBlx-130" value="" style="endArrow=none;html=1;rounded=0;exitX=0.5;exitY=0;exitDx=0;exitDy=0;entryX=0.5;entryY=1;entryDx=0;entryDy=0;" parent="1" source="RnyVEv3LvNVgg6abGBlx-129" target="RnyVEv3LvNVgg6abGBlx-2" edge="1">
          <mxGeometry width="50" height="50" relative="1" as="geometry">
            <mxPoint x="371" y="455" as="sourcePoint" />
            <mxPoint x="421" y="405" as="targetPoint" />
          </mxGeometry>
        </mxCell>
        <mxCell id="RnyVEv3LvNVgg6abGBlx-131" value="" style="endArrow=none;html=1;rounded=0;exitX=0.5;exitY=0;exitDx=0;exitDy=0;" parent="1" source="RnyVEv3LvNVgg6abGBlx-128" edge="1">
          <mxGeometry width="50" height="50" relative="1" as="geometry">
            <mxPoint x="366" y="532" as="sourcePoint" />
            <mxPoint x="416" y="482" as="targetPoint" />
          </mxGeometry>
        </mxCell>
        <mxCell id="RnyVEv3LvNVgg6abGBlx-132" value="1" style="text;html=1;align=center;verticalAlign=middle;resizable=0;points=[];autosize=1;strokeColor=none;fillColor=none;" parent="1" vertex="1">
          <mxGeometry x="399" y="418" width="25" height="26" as="geometry" />
        </mxCell>
        <mxCell id="RnyVEv3LvNVgg6abGBlx-133" value="1" style="text;html=1;align=center;verticalAlign=middle;resizable=0;points=[];autosize=1;strokeColor=none;fillColor=none;" parent="1" vertex="1">
          <mxGeometry x="414" y="474" width="25" height="26" as="geometry" />
        </mxCell>
        <mxCell id="RnyVEv3LvNVgg6abGBlx-134" value="shipping_assignments" style="rounded=0;whiteSpace=wrap;html=1;" parent="1" vertex="1">
          <mxGeometry x="124" y="522" width="121.5" height="40" as="geometry" />
        </mxCell>
        <mxCell id="RnyVEv3LvNVgg6abGBlx-135" value="Có" style="rhombus;whiteSpace=wrap;html=1;" parent="1" vertex="1">
          <mxGeometry x="245.5" y="170" width="80" height="40" as="geometry" />
        </mxCell>
        <mxCell id="RnyVEv3LvNVgg6abGBlx-136" value="" style="endArrow=none;html=1;rounded=0;" parent="1" source="RnyVEv3LvNVgg6abGBlx-135" edge="1">
          <mxGeometry width="50" height="50" relative="1" as="geometry">
            <mxPoint x="325.5" y="240" as="sourcePoint" />
            <mxPoint x="382" y="190" as="targetPoint" />
          </mxGeometry>
        </mxCell>
        <mxCell id="RnyVEv3LvNVgg6abGBlx-137" value="n" style="text;html=1;align=center;verticalAlign=middle;resizable=0;points=[];autosize=1;strokeColor=none;fillColor=none;" parent="1" vertex="1">
          <mxGeometry x="342" y="185" width="25" height="26" as="geometry" />
        </mxCell>
        <mxCell id="RnyVEv3LvNVgg6abGBlx-138" value="" style="endArrow=none;html=1;rounded=0;exitX=0;exitY=0.5;exitDx=0;exitDy=0;" parent="1" edge="1">
          <mxGeometry width="50" height="50" relative="1" as="geometry">
            <mxPoint x="121.5" y="546" as="sourcePoint" />
            <mxPoint x="245.5" y="191" as="targetPoint" />
            <Array as="points">
              <mxPoint x="83.5" y="546" />
              <mxPoint x="80.5" y="191" />
            </Array>
          </mxGeometry>
        </mxCell>
        <mxCell id="RnyVEv3LvNVgg6abGBlx-139" value="1" style="text;html=1;align=center;verticalAlign=middle;resizable=0;points=[];autosize=1;strokeColor=none;fillColor=none;" parent="1" vertex="1">
          <mxGeometry x="178" y="186" width="25" height="26" as="geometry" />
        </mxCell>
        <mxCell id="RnyVEv3LvNVgg6abGBlx-140" value="Có" style="rhombus;whiteSpace=wrap;html=1;" parent="1" vertex="1">
          <mxGeometry x="269.78" y="522" width="80" height="40" as="geometry" />
        </mxCell>
        <mxCell id="RnyVEv3LvNVgg6abGBlx-141" value="" style="endArrow=none;html=1;rounded=0;exitX=1;exitY=0.5;exitDx=0;exitDy=0;" parent="1" source="RnyVEv3LvNVgg6abGBlx-134" edge="1">
          <mxGeometry width="50" height="50" relative="1" as="geometry">
            <mxPoint x="221" y="591" as="sourcePoint" />
            <mxPoint x="271" y="541" as="targetPoint" />
          </mxGeometry>
        </mxCell>
        <mxCell id="RnyVEv3LvNVgg6abGBlx-142" value="n" style="text;html=1;align=center;verticalAlign=middle;resizable=0;points=[];autosize=1;strokeColor=none;fillColor=none;" parent="1" vertex="1">
          <mxGeometry x="248" y="537" width="25" height="26" as="geometry" />
        </mxCell>
        <mxCell id="RnyVEv3LvNVgg6abGBlx-143" value="" style="endArrow=none;html=1;rounded=0;exitX=1;exitY=0.5;exitDx=0;exitDy=0;entryX=0;entryY=0.5;entryDx=0;entryDy=0;" parent="1" source="RnyVEv3LvNVgg6abGBlx-140" target="RnyVEv3LvNVgg6abGBlx-128" edge="1">
          <mxGeometry width="50" height="50" relative="1" as="geometry">
            <mxPoint x="329" y="588" as="sourcePoint" />
            <mxPoint x="379" y="538" as="targetPoint" />
          </mxGeometry>
        </mxCell>
        <mxCell id="RnyVEv3LvNVgg6abGBlx-144" value="1" style="text;html=1;align=center;verticalAlign=middle;resizable=0;points=[];autosize=1;strokeColor=none;fillColor=none;" parent="1" vertex="1">
          <mxGeometry x="353" y="537" width="25" height="26" as="geometry" />
        </mxCell>
        <mxCell id="RnyVEv3LvNVgg6abGBlx-145" value="reviews" style="rounded=0;whiteSpace=wrap;html=1;" parent="1" vertex="1">
          <mxGeometry x="538" y="611" width="70" height="40" as="geometry" />
        </mxCell>
        <mxCell id="RnyVEv3LvNVgg6abGBlx-146" value="Có" style="rhombus;whiteSpace=wrap;html=1;" parent="1" vertex="1">
          <mxGeometry x="470" y="529" width="80" height="40" as="geometry" />
        </mxCell>
        <mxCell id="RnyVEv3LvNVgg6abGBlx-147" value="" style="endArrow=none;html=1;rounded=0;exitX=0.5;exitY=0;exitDx=0;exitDy=0;" parent="1" source="RnyVEv3LvNVgg6abGBlx-146" edge="1">
          <mxGeometry width="50" height="50" relative="1" as="geometry">
            <mxPoint x="381" y="456" as="sourcePoint" />
            <mxPoint x="431" y="406" as="targetPoint" />
          </mxGeometry>
        </mxCell>
        <mxCell id="RnyVEv3LvNVgg6abGBlx-148" value="1" style="edgeLabel;html=1;align=center;verticalAlign=middle;resizable=0;points=[];" parent="RnyVEv3LvNVgg6abGBlx-147" vertex="1" connectable="0">
          <mxGeometry x="-0.5815" y="5" relative="1" as="geometry">
            <mxPoint x="1" as="offset" />
          </mxGeometry>
        </mxCell>
        <mxCell id="RnyVEv3LvNVgg6abGBlx-149" value="" style="endArrow=none;html=1;rounded=0;exitX=0.5;exitY=0;exitDx=0;exitDy=0;" parent="1" source="RnyVEv3LvNVgg6abGBlx-145" edge="1">
          <mxGeometry width="50" height="50" relative="1" as="geometry">
            <mxPoint x="458" y="620" as="sourcePoint" />
            <mxPoint x="508" y="570" as="targetPoint" />
          </mxGeometry>
        </mxCell>
        <mxCell id="RnyVEv3LvNVgg6abGBlx-150" value="n" style="text;html=1;align=center;verticalAlign=middle;resizable=0;points=[];autosize=1;strokeColor=none;fillColor=none;" parent="1" vertex="1">
          <mxGeometry x="520" y="559" width="25" height="26" as="geometry" />
        </mxCell>
        <mxCell id="RnyVEv3LvNVgg6abGBlx-151" value="" style="endArrow=none;html=1;rounded=0;" parent="1" edge="1">
          <mxGeometry width="50" height="50" relative="1" as="geometry">
            <mxPoint x="680" y="584" as="sourcePoint" />
            <mxPoint x="712" y="557" as="targetPoint" />
          </mxGeometry>
        </mxCell>
        <mxCell id="RnyVEv3LvNVgg6abGBlx-152" value="Thuộc" style="rhombus;whiteSpace=wrap;html=1;" parent="1" vertex="1">
          <mxGeometry x="624.78" y="574" width="80" height="40" as="geometry" />
        </mxCell>
        <mxCell id="RnyVEv3LvNVgg6abGBlx-153" value="" style="endArrow=none;html=1;rounded=0;exitX=1;exitY=0.5;exitDx=0;exitDy=0;" parent="1" source="RnyVEv3LvNVgg6abGBlx-145" edge="1">
          <mxGeometry width="50" height="50" relative="1" as="geometry">
            <mxPoint x="600" y="656" as="sourcePoint" />
            <mxPoint x="650" y="606" as="targetPoint" />
          </mxGeometry>
        </mxCell>
        <mxCell id="RnyVEv3LvNVgg6abGBlx-154" value="1" style="text;html=1;align=center;verticalAlign=middle;resizable=0;points=[];autosize=1;strokeColor=none;fillColor=none;" parent="1" vertex="1">
          <mxGeometry x="671" y="551" width="25" height="26" as="geometry" />
        </mxCell>
        <mxCell id="RnyVEv3LvNVgg6abGBlx-155" value="n" style="text;html=1;align=center;verticalAlign=middle;resizable=0;points=[];autosize=1;strokeColor=none;fillColor=none;" parent="1" vertex="1">
          <mxGeometry x="618" y="626" width="25" height="26" as="geometry" />
        </mxCell>
        <mxCell id="RnyVEv3LvNVgg6abGBlx-156" value="Đánh giá" style="rhombus;whiteSpace=wrap;html=1;" parent="1" vertex="1">
          <mxGeometry x="769.28" y="735" width="80" height="40" as="geometry" />
        </mxCell>
        <mxCell id="RnyVEv3LvNVgg6abGBlx-157" value="" style="endArrow=none;html=1;rounded=0;exitX=0;exitY=0.5;exitDx=0;exitDy=0;" parent="1" source="RnyVEv3LvNVgg6abGBlx-156" edge="1">
          <mxGeometry width="50" height="50" relative="1" as="geometry">
            <mxPoint x="529" y="702" as="sourcePoint" />
            <mxPoint x="579" y="652" as="targetPoint" />
            <Array as="points">
              <mxPoint x="579" y="752" />
            </Array>
          </mxGeometry>
        </mxCell>
        <mxCell id="RnyVEv3LvNVgg6abGBlx-158" value="" style="endArrow=none;html=1;rounded=0;exitX=1;exitY=0.5;exitDx=0;exitDy=0;" parent="1" source="RnyVEv3LvNVgg6abGBlx-156" edge="1">
          <mxGeometry width="50" height="50" relative="1" as="geometry">
            <mxPoint x="619" y="126" as="sourcePoint" />
            <mxPoint x="669" y="76" as="targetPoint" />
            <Array as="points">
              <mxPoint x="986" y="758" />
              <mxPoint x="986" y="76" />
            </Array>
          </mxGeometry>
        </mxCell>
        <mxCell id="RnyVEv3LvNVgg6abGBlx-159" value="1" style="text;html=1;align=center;verticalAlign=middle;resizable=0;points=[];autosize=1;strokeColor=none;fillColor=none;" parent="1" vertex="1">
          <mxGeometry x="727" y="725" width="25" height="26" as="geometry" />
        </mxCell>
        <mxCell id="RnyVEv3LvNVgg6abGBlx-160" value="1" style="text;html=1;align=center;verticalAlign=middle;resizable=0;points=[];autosize=1;strokeColor=none;fillColor=none;" parent="1" vertex="1">
          <mxGeometry x="847" y="726" width="25" height="26" as="geometry" />
        </mxCell>
        <mxCell id="RnyVEv3LvNVgg6abGBlx-161" value="review_media" style="rounded=0;whiteSpace=wrap;html=1;" parent="1" vertex="1">
          <mxGeometry x="100" y="595" width="97" height="40" as="geometry" />
        </mxCell>
        <mxCell id="RnyVEv3LvNVgg6abGBlx-162" value="Có" style="rhombus;whiteSpace=wrap;html=1;" parent="1" vertex="1">
          <mxGeometry x="318.5" y="580" width="80" height="40" as="geometry" />
        </mxCell>
        <mxCell id="RnyVEv3LvNVgg6abGBlx-163" value="" style="endArrow=none;html=1;rounded=0;exitX=1;exitY=0.5;exitDx=0;exitDy=0;" parent="1" source="RnyVEv3LvNVgg6abGBlx-162" edge="1">
          <mxGeometry width="50" height="50" relative="1" as="geometry">
            <mxPoint x="488" y="676" as="sourcePoint" />
            <mxPoint x="538" y="626" as="targetPoint" />
          </mxGeometry>
        </mxCell>
        <mxCell id="RnyVEv3LvNVgg6abGBlx-164" value="" style="endArrow=none;html=1;rounded=0;exitX=1;exitY=0.5;exitDx=0;exitDy=0;" parent="1" source="RnyVEv3LvNVgg6abGBlx-161" edge="1" target="RnyVEv3LvNVgg6abGBlx-162">
          <mxGeometry width="50" height="50" relative="1" as="geometry">
            <mxPoint x="364" y="712" as="sourcePoint" />
            <mxPoint x="414" y="662" as="targetPoint" />
          </mxGeometry>
        </mxCell>
        <mxCell id="RnyVEv3LvNVgg6abGBlx-165" value="n" style="text;html=1;align=center;verticalAlign=middle;resizable=0;points=[];autosize=1;strokeColor=none;fillColor=none;" parent="1" vertex="1">
          <mxGeometry x="275.5" y="605" width="25" height="26" as="geometry" />
        </mxCell>
        <mxCell id="RnyVEv3LvNVgg6abGBlx-166" value="1" style="text;html=1;align=center;verticalAlign=middle;resizable=0;points=[];autosize=1;strokeColor=none;fillColor=none;" parent="1" vertex="1">
          <mxGeometry x="408.28" y="609" width="25" height="26" as="geometry" />
        </mxCell>
        <mxCell id="Lb16jscTYfuPZS9g_JSY-1" value="toppings" style="rounded=0;whiteSpace=wrap;html=1;" vertex="1" parent="1">
          <mxGeometry x="777" y="2" width="70" height="40" as="geometry" />
        </mxCell>
        <mxCell id="Lb16jscTYfuPZS9g_JSY-8" value="Có" style="rhombus;whiteSpace=wrap;html=1;" vertex="1" parent="1">
          <mxGeometry x="645.78" y="2" width="80" height="40" as="geometry" />
        </mxCell>
        <mxCell id="Lb16jscTYfuPZS9g_JSY-10" value="" style="endArrow=none;html=1;rounded=0;exitX=0.5;exitY=0;exitDx=0;exitDy=0;" edge="1" parent="1" source="RnyVEv3LvNVgg6abGBlx-112">
          <mxGeometry width="50" height="50" relative="1" as="geometry">
            <mxPoint x="600" y="70" as="sourcePoint" />
            <mxPoint x="650" y="20" as="targetPoint" />
          </mxGeometry>
        </mxCell>
        <mxCell id="Lb16jscTYfuPZS9g_JSY-11" value="" style="endArrow=none;html=1;rounded=0;exitX=1;exitY=0.5;exitDx=0;exitDy=0;" edge="1" parent="1" source="Lb16jscTYfuPZS9g_JSY-8">
          <mxGeometry width="50" height="50" relative="1" as="geometry">
            <mxPoint x="727" y="68" as="sourcePoint" />
            <mxPoint x="777" y="18" as="targetPoint" />
          </mxGeometry>
        </mxCell>
        <mxCell id="Lb16jscTYfuPZS9g_JSY-12" value="n" style="text;html=1;align=center;verticalAlign=middle;resizable=0;points=[];autosize=1;strokeColor=none;fillColor=none;" vertex="1" parent="1">
          <mxGeometry x="605" y="18" width="30" height="30" as="geometry" />
        </mxCell>
        <mxCell id="Lb16jscTYfuPZS9g_JSY-13" value="n" style="text;html=1;align=center;verticalAlign=middle;resizable=0;points=[];autosize=1;strokeColor=none;fillColor=none;" vertex="1" parent="1">
          <mxGeometry x="725" y="18" width="30" height="30" as="geometry" />
        </mxCell>
      </root>
    </mxGraphModel>
  </diagram>
</mxfile>
